<svg xmlns="http://www.w3.org/2000/svg" version="1.0" viewBox="0 0 1308.000000 1012.000000" preserveAspectRatio="xMidYMid meet">

<g transform="translate(0.000000,1012.000000) scale(0.100000,-0.100000)" fill="#7C7C7C" stroke="none">
<path d="M7268 8985 c-76 -6 -141 -15 -145 -19 -9 -8 -17 -1432 -8 -1454 6 -15 1243 601 1252 624 3 8 2 206 -2 439 l-7 425 -477 -1 c-266 -1 -537 -7 -613 -14z"/>
<path d="M8304 7927 c-34 -56 -107 -181 -161 -277 -129 -226 -429 -746 -578 -1000 -145 -248 -294 -507 -306 -533 -7 -15 -17 -27 -22 -27 -6 0 -33 18 -59 41 -27 23 -52 38 -56 34 -4 -4 -7 -743 -8 -1643 -1 -1292 1 -1641 11 -1657 7 -12 50 -40 96 -64 46 -24 125 -67 174 -96 50 -29 146 -84 215 -123 69 -38 143 -79 165 -92 22 -12 74 -41 115 -63 41 -22 102 -57 135 -77 33 -20 120 -69 193 -109 72 -40 135 -77 138 -82 3 -5 12 -9 20 -9 11 0 14 8 10 33 -11 68 -18 1779 -17 3770 1 1142 0 2077 -1 2077 -2 0 -31 -46 -64 -103z"/>
<path d="M5688 7901 c-86 -4 -160 -10 -165 -15 -12 -12 -16 -1916 -3 -1916 5 0 42 28 81 62 40 34 115 97 168 141 53 43 155 127 226 186 72 59 209 172 305 251 96 79 179 147 185 152 6 5 -43 60 -123 141 -73 73 -132 138 -132 145 0 7 10 16 23 21 41 16 341 164 379 188 l37 23 -3 122 c-2 68 -4 210 -5 316 l-1 192 -407 -2 c-225 -1 -479 -4 -565 -7z"/>
<path d="M4147 6893 c-161 -3 -219 -7 -222 -16 -3 -6 -4 -511 -3 -1121 l3 -1109 130 110 c72 60 249 208 395 327 146 120 321 264 390 321 69 57 145 121 169 144 l44 41 -6 457 c-4 252 -7 547 -7 656 l0 197 -337 -2 c-186 -2 -436 -4 -556 -5z"/>
<path d="M6619 6077 c-21 -18 -97 -84 -170 -148 -74 -64 -242 -210 -374 -323 -132 -114 -268 -232 -302 -262 -34 -30 -103 -89 -153 -130 -50 -42 -95 -87 -101 -100 -5 -16 -9 -487 -9 -1209 l0 -1184 118 -69 c64 -38 185 -106 267 -152 83 -45 155 -86 160 -90 6 -4 35 -21 65 -38 99 -53 154 -84 210 -117 69 -41 310 -174 311 -172 1 6 18 4022 16 4023 -1 1 -18 -12 -38 -29z"/>
<path d="M5009 4687 c-20 -18 -107 -93 -194 -167 -87 -74 -213 -182 -280 -240 -67 -58 -213 -184 -325 -280 -112 -96 -223 -192 -247 -214 l-43 -39 0 -537 0 -537 73 -45 c39 -25 108 -65 152 -88 79 -43 302 -168 505 -283 58 -33 155 -87 215 -120 61 -32 129 -72 152 -88 l43 -28 -6 1347 c-4 741 -7 1348 -8 1349 0 1 -17 -13 -37 -30z"/>
</g>
</svg>