<svg version="1.0" xmlns="http://www.w3.org/2000/svg"
 width="1487.000000pt" height="1012.000000pt" viewBox="0 0 1487.000000 1012.000000"
 preserveAspectRatio="xMidYMid meet">

<g transform="translate(0.000000,1012.000000) scale(0.100000,-0.100000)"
fill="#7e7e7e" stroke="none">
<path d="M8880 9909 c-36 -4 -173 -10 -305 -13 -243 -6 -566 -24 -575 -33 -10
-10 -11 -1183 0 -1183 5 0 235 113 510 250 l500 250 0 173 c0 96 -3 262 -7
370 l-6 197 -26 -1 c-14 -1 -55 -5 -91 -10z"/>
<path d="M8959 9020 c-25 -41 -84 -142 -131 -225 -81 -142 -239 -416 -433
-750 -48 -82 -134 -232 -192 -332 -58 -101 -109 -183 -113 -183 -3 0 -25 16
-47 35 -22 19 -43 32 -47 28 -3 -3 -6 -605 -6 -1338 0 -1258 1 -1333 17 -1347
10 -9 46 -30 80 -47 34 -17 97 -52 140 -77 43 -25 114 -65 158 -89 81 -44 504
-283 583 -330 45 -27 59 -30 53 -12 -2 7 -6 1076 -10 2377 l-6 2365 -46 -75z"/>
<path d="M7500 9023 c-187 -6 -794 -34 -797 -37 -2 -1 -2 -352 -1 -778 l3
-776 116 97 c64 53 173 143 243 201 71 58 196 161 278 229 l150 124 -112 112
-112 112 179 89 178 89 0 270 c0 233 -2 270 -15 270 -8 1 -58 0 -110 -2z"/>
<path d="M6003 8189 c-10 -3 -146 -6 -303 -8 -202 -2 -287 -6 -292 -14 -4 -7
-8 -414 -8 -904 0 -771 2 -893 14 -893 8 0 18 5 21 11 7 10 251 214 605 504
101 83 205 170 232 193 l48 44 0 147 c0 81 -3 324 -7 539 l-6 391 -143 -2
c-79 -1 -152 -5 -161 -8z"/>
<path d="M7465 7409 c-82 -72 -288 -250 -457 -395 l-308 -265 0 -977 0 -977
158 -89 c86 -49 202 -115 257 -146 118 -67 229 -130 381 -215 l112 -62 6 1121
c10 1844 11 2136 6 2136 -3 0 -72 -59 -155 -131z"/>
<path d="M5999 6146 c-173 -149 -378 -325 -455 -392 l-139 -120 -3 -436 -2
-436 97 -57 c54 -31 143 -82 198 -112 55 -31 154 -86 220 -123 66 -36 178 -99
250 -139 71 -40 135 -77 142 -83 8 -6 15 -9 17 -7 2 2 1 493 -3 1090 l-6 1086
-316 -271z"/>
<path d="M3291 3856 c-6 -7 -22 -44 -35 -82 -13 -38 -64 -172 -114 -299 -49
-126 -106 -275 -127 -330 -20 -55 -59 -154 -85 -220 -27 -66 -87 -219 -135
-340 -95 -239 -140 -335 -179 -382 -29 -34 -78 -50 -192 -61 -60 -6 -69 -10
-72 -28 -3 -20 3 -21 110 -27 144 -9 457 -9 526 0 46 5 53 9 50 26 -4 26 -31
33 -171 49 -75 8 -111 16 -114 25 -7 18 7 66 117 388 51 149 100 276 109 283
12 10 75 13 271 11 140 -1 265 -4 277 -6 12 -3 25 -15 29 -26 3 -12 33 -96 66
-187 84 -231 136 -388 144 -437 l6 -41 -43 -6 c-24 -4 -84 -12 -134 -19 -80
-11 -90 -14 -93 -34 -3 -20 2 -22 71 -28 95 -9 643 -2 653 8 4 4 3 12 -4 19
-12 12 -147 58 -173 58 -39 0 -77 75 -178 357 -117 325 -435 1164 -479 1264
-32 73 -73 100 -101 65z m-18 -282 c22 -44 174 -438 215 -556 19 -53 27 -90
21 -93 -18 -12 -519 -2 -519 10 0 31 117 345 247 663 9 20 18 14 36 -24z"/>
<path d="M8422 3853 c-6 -10 -84 -212 -175 -449 -91 -236 -186 -482 -212 -545
-26 -62 -70 -177 -99 -254 -104 -275 -177 -415 -226 -435 -15 -6 -71 -16 -126
-23 -87 -11 -99 -15 -102 -33 -3 -19 4 -21 80 -27 107 -9 487 -9 556 0 46 5
53 8 50 27 -2 17 -15 23 -63 33 -33 7 -95 15 -138 19 -55 4 -80 10 -84 20 -3
8 4 45 16 82 34 102 201 586 205 589 2 2 503 6 557 4 12 -1 30 -37 64 -128 80
-216 175 -507 175 -535 0 -30 12 -27 -165 -50 -89 -12 -100 -15 -103 -34 -3
-18 4 -22 44 -28 60 -8 528 -8 617 1 42 4 67 10 67 18 0 6 -42 24 -92 39 -51
15 -100 31 -108 35 -26 12 -77 127 -171 386 -169 467 -439 1177 -473 1243 -32
62 -75 83 -94 45z m40 -415 c115 -295 178 -466 180 -490 l3 -23 -257 0 c-141
0 -259 3 -263 7 -11 11 138 416 229 622 19 43 29 57 37 49 7 -7 38 -80 71
-165z"/>
<path d="M11186 3848 c-8 -13 -30 -66 -49 -118 -20 -52 -98 -257 -175 -455
-362 -932 -396 -1012 -447 -1073 -27 -33 -71 -46 -195 -60 -43 -5 -66 -12 -74
-24 -5 -9 -7 -20 -3 -24 10 -10 519 -18 610 -10 72 7 77 9 77 31 0 20 -7 24
-62 34 -35 6 -95 13 -134 17 -39 3 -75 9 -81 12 -13 8 9 97 54 222 18 47 59
166 93 265 34 99 68 185 76 192 11 8 90 11 282 8 147 -1 270 -3 274 -4 19 -3
208 -537 233 -658 6 -31 6 -32 -37 -37 -222 -29 -223 -29 -226 -58 l-3 -28
314 0 c349 0 410 4 405 29 -2 9 -23 21 -53 29 -162 44 -150 38 -183 100 -16
31 -50 113 -75 182 -25 69 -66 184 -92 255 -83 230 -407 1079 -427 1120 -39
78 -74 96 -102 53z m59 -457 c110 -281 165 -431 165 -455 0 -17 -12 -18 -254
-15 -140 2 -258 7 -262 11 -4 5 10 58 31 120 56 169 216 568 225 563 5 -3 47
-104 95 -224z"/>
<path d="M1453 3845 c-284 -51 -512 -230 -648 -510 -70 -143 -85 -203 -92
-360 -16 -395 163 -697 494 -835 174 -73 328 -97 558 -86 164 7 245 18 339 48
80 25 82 27 127 207 46 180 36 204 -38 92 -100 -153 -222 -234 -410 -273 -301
-62 -576 59 -702 311 -81 162 -124 414 -101 596 33 267 97 427 228 567 56 61
172 139 247 167 121 46 312 45 428 0 111 -44 223 -148 275 -256 9 -19 23 -33
34 -33 16 0 18 11 18 125 0 109 -2 127 -19 144 -25 25 -159 76 -253 95 -95 20
-379 20 -485 1z"/>
<path d="M9460 3828 c0 -37 24 -48 130 -61 163 -20 146 15 155 -339 4 -167 8
-584 9 -928 1 -668 1 -670 -51 -833 -28 -92 -77 -153 -148 -186 -59 -28 -75
-27 -121 9 -130 99 -171 116 -220 89 -87 -46 -62 -172 39 -200 61 -17 209 -5
280 21 183 69 337 299 396 593 47 231 50 331 36 1217 -7 455 -6 517 8 528 8 7
52 20 98 30 73 15 84 20 87 40 l3 22 -298 0 c-164 0 -322 3 -350 6 -43 6 -53
4 -53 -8z"/>
<path d="M4417 3823 l-88 -4 3 -27 c3 -26 7 -28 112 -49 133 -27 145 -37 155
-124 10 -81 6 -1294 -4 -1372 -4 -31 -10 -59 -14 -62 -4 -2 -60 -13 -124 -24
-130 -22 -137 -25 -137 -50 0 -14 11 -20 46 -25 61 -8 613 -8 682 1 94 11 56
41 -108 87 -32 9 -66 27 -80 41 l-25 27 -3 311 c-2 172 -1 326 3 344 l6 33 95
0 c65 0 104 -5 124 -15 34 -17 86 -91 155 -220 27 -49 102 -182 168 -294 65
-113 132 -231 148 -263 l29 -58 178 0 c97 0 207 3 245 7 62 5 67 8 67 29 0 18
-7 25 -27 30 -187 43 -249 81 -350 218 -57 77 -363 592 -363 610 0 3 35 24 78
48 102 56 192 142 226 217 84 189 6 424 -174 520 -109 58 -155 63 -565 66
-203 1 -410 0 -458 -2z m699 -81 c137 -43 231 -139 269 -274 46 -166 -30 -356
-170 -423 -72 -34 -336 -73 -366 -54 -10 6 -14 92 -17 368 -3 198 -1 372 2
387 l7 27 107 -6 c64 -3 132 -13 168 -25z"/>
<path d="M5855 3820 c-9 -15 33 -38 110 -60 44 -12 88 -27 98 -32 30 -16 72
-83 125 -200 345 -767 427 -954 503 -1138 49 -118 101 -243 115 -277 21 -51
31 -63 49 -63 33 0 40 13 89 156 41 120 140 372 266 674 63 152 172 417 247
600 105 257 105 258 250 289 65 14 78 21 78 37 0 18 -10 19 -337 19 -185 0
-340 -3 -344 -8 -16 -15 15 -27 125 -48 92 -18 120 -27 144 -49 l31 -27 -13
-73 c-26 -146 -241 -737 -402 -1108 -27 -62 -49 -119 -49 -127 0 -37 -21 -7
-59 83 -22 53 -79 187 -125 297 -46 110 -145 337 -219 505 -139 316 -178 430
-156 456 16 19 65 31 189 43 98 11 124 21 116 46 -3 11 -824 16 -831 5z"/>
<path d="M12210 3813 c0 -36 19 -46 136 -68 66 -13 126 -26 135 -30 13 -5 17
-27 21 -113 7 -146 -8 -1363 -17 -1384 -4 -10 -10 -18 -14 -18 -3 0 -37 -6
-76 -14 -38 -7 -103 -19 -142 -26 l-73 -12 0 -35 0 -35 498 3 c273 2 610 0
749 -5 l252 -8 5 23 c2 13 19 115 37 227 23 146 29 206 21 214 -11 11 -13 9
-82 -114 -44 -79 -158 -194 -229 -232 -53 -28 -61 -29 -256 -38 -111 -5 -256
-7 -321 -6 l-119 3 0 792 c0 537 3 795 10 802 6 6 71 16 145 22 143 12 173 20
168 47 -3 16 -39 17 -426 20 -397 2 -422 1 -422 -15z"/>
<path d="M11578 879 l2 -480 28 3 27 3 3 478 3 477 -33 0 -33 0 3 -481z"/>
<path d="M2519 1317 c-75 -21 -136 -74 -164 -139 -44 -108 7 -211 149 -298
224 -137 256 -169 256 -255 0 -91 -65 -158 -165 -170 -66 -9 -162 7 -222 36
-24 12 -46 19 -48 17 -2 -2 -1 -17 3 -34 7 -24 18 -32 63 -48 77 -28 226 -27
289 1 121 54 169 175 116 288 -29 64 -70 99 -196 170 -163 91 -202 136 -202
227 1 116 133 189 287 158 86 -17 99 -17 103 1 8 40 -178 72 -269 46z"/>
<path d="M4823 1323 c-7 -2 -13 -20 -13 -39 0 -33 1 -34 40 -34 22 0 40 4 40
9 0 5 3 16 6 24 11 29 -36 55 -73 40z"/>
<path d="M5697 1323 c-4 -3 -7 -22 -7 -40 0 -33 1 -34 38 -31 31 2 38 7 40 27
5 36 -48 68 -71 44z"/>
<path d="M7640 865 l0 -465 23 0 22 0 0 465 0 465 -22 0 -23 0 0 -465z"/>
<path d="M8686 1244 c-3 -9 -6 -51 -6 -93 l0 -78 -61 -6 c-67 -6 -74 -9 -66
-32 5 -10 20 -15 51 -15 81 0 76 14 76 -229 0 -324 13 -369 107 -387 43 -8
111 12 127 38 16 26 4 30 -46 17 -56 -15 -93 -6 -115 28 -16 24 -18 55 -18
278 l0 250 90 5 c82 5 90 7 90 25 0 18 -8 20 -92 23 l-93 3 0 94 c0 87 -2 95
-19 95 -10 0 -22 -7 -25 -16z"/>
<path d="M4136 1071 c-7 -11 232 -652 249 -670 22 -23 50 9 81 93 15 39 69
177 120 306 95 243 104 268 92 269 -29 3 -39 -1 -48 -20 -14 -25 -157 -405
-190 -504 -13 -38 -27 -74 -30 -78 -4 -4 -28 52 -54 125 -115 329 -173 471
-194 479 -12 5 -24 5 -26 0z"/>
<path d="M7936 1072 c-3 -3 -6 -155 -6 -339 l0 -333 25 0 25 0 0 179 c0 222 5
259 44 323 50 84 134 127 220 112 52 -9 110 -64 124 -119 6 -22 13 -141 16
-265 7 -226 10 -245 44 -232 13 4 14 39 9 246 -6 271 -13 305 -74 368 -100
103 -324 56 -371 -77 -9 -26 -11 -18 -11 51 -1 72 -3 82 -20 87 -11 3 -22 2
-25 -1z"/>
<path d="M10213 1073 c-8 -3 -13 -25 -13 -61 l0 -57 -26 33 c-45 56 -97 77
-194 77 -75 0 -91 -4 -138 -30 -95 -52 -147 -144 -158 -278 -22 -251 142 -406
361 -343 45 14 68 28 108 69 l49 51 -4 -100 c-3 -89 -7 -105 -34 -154 -26 -45
-42 -60 -89 -85 -52 -27 -68 -30 -149 -30 -78 0 -99 4 -148 27 -47 22 -58 24
-58 12 0 -57 75 -89 210 -89 121 0 187 21 245 79 71 72 76 108 73 525 -2 225
-7 355 -13 357 -5 1 -16 0 -22 -3z m-118 -86 c21 -12 53 -41 70 -65 29 -42 30
-48 33 -166 4 -135 -3 -166 -53 -224 -34 -41 -91 -70 -150 -79 -206 -28 -332
227 -217 440 60 112 205 155 317 94z"/>
<path d="M3184 1061 c-74 -19 -138 -76 -180 -160 -35 -71 -45 -208 -20 -292
36 -122 142 -209 256 -209 108 0 240 50 240 91 0 23 -13 24 -43 4 -12 -8 -51
-22 -87 -31 -114 -29 -218 -3 -273 69 -31 41 -60 125 -55 163 l3 29 245 0 245
1 -3 39 c-10 143 -56 241 -134 281 -35 18 -149 27 -194 15z m169 -66 c19 -9
47 -33 61 -53 25 -37 61 -151 50 -161 -3 -3 -103 -5 -222 -4 l-217 3 3 27 c5
47 52 132 88 160 68 52 163 63 237 28z"/>
<path d="M3694 853 c3 -120 5 -271 6 -335 0 -118 0 -118 24 -118 l24 0 4 218
3 217 30 53 c33 61 92 118 132 128 18 5 37 1 56 -10 16 -9 31 -15 33 -13 9 9
-10 69 -23 74 -8 3 -38 1 -67 -6 -61 -13 -118 -56 -146 -109 l-19 -37 -1 78 0
77 -31 0 -30 0 5 -217z"/>
<path d="M4820 736 c0 -184 4 -337 8 -340 5 -3 18 -2 30 1 l22 5 0 334 0 334
-30 0 -30 0 0 -334z"/>
<path d="M5311 1060 c-91 -19 -176 -89 -220 -180 -23 -48 -26 -68 -26 -155 0
-87 3 -107 26 -155 53 -113 135 -165 259 -164 109 0 190 36 190 82 0 6 -24 1
-52 -11 -70 -27 -179 -29 -230 -3 -50 24 -92 69 -120 125 -33 69 -31 197 5
267 27 54 82 109 125 125 85 33 139 31 258 -6 19 -6 21 -3 17 18 -9 46 -135
77 -232 57z"/>
<path d="M5700 736 c0 -350 0 -349 43 -338 17 4 18 25 16 338 l-1 334 -29 0
-29 0 0 -334z"/>
<path d="M6167 1060 c-123 -31 -203 -123 -227 -261 -27 -157 45 -316 170 -373
59 -27 183 -28 258 -3 69 25 134 90 163 165 29 76 30 216 3 293 -24 66 -91
142 -146 164 -51 20 -168 28 -221 15z m208 -71 c90 -42 130 -130 123 -273 -3
-80 -8 -99 -34 -146 -53 -93 -168 -138 -283 -110 -69 16 -120 56 -156 121 -28
50 -30 62 -30 154 0 84 4 107 22 141 38 72 97 115 188 138 37 9 125 -4 170
-25z"/>
<path d="M6830 1058 c-78 -22 -130 -85 -130 -158 0 -81 40 -124 172 -188 99
-47 134 -78 143 -125 13 -70 -56 -136 -143 -137 -43 0 -121 19 -149 38 -22 14
-23 13 -23 -16 0 -37 12 -46 79 -62 138 -33 271 30 288 135 14 84 -30 135
-178 211 -118 61 -139 83 -139 149 0 46 40 88 96 104 52 14 69 14 139 -4 75
-20 97 -14 66 19 -38 41 -142 57 -221 34z"/>
<path d="M9212 1060 c-74 -17 -141 -81 -184 -176 -19 -41 -23 -66 -23 -154 0
-113 16 -165 71 -237 61 -81 178 -111 304 -79 88 23 124 45 128 80 l4 29 -34
-21 c-73 -45 -185 -63 -257 -42 -91 26 -161 118 -164 217 l-2 48 245 0 245 1
-3 59 c-4 69 -26 146 -56 191 -50 78 -159 111 -274 84z m170 -63 c46 -19 92
-88 108 -159 6 -28 9 -52 8 -54 -6 -5 -158 -9 -300 -6 l-146 2 10 38 c44 160
182 237 320 179z"/>
<path d="M10480 735 l0 -335 29 0 30 0 1 199 c0 109 4 211 9 227 38 133 148
224 217 179 32 -21 39 -15 27 22 -22 64 -118 52 -191 -24 -24 -25 -50 -60 -57
-77 -12 -28 -13 -22 -8 57 l6 87 -32 0 -31 0 0 -335z"/>
<path d="M11062 1054 c-72 -19 -109 -40 -117 -65 -10 -31 0 -33 47 -11 24 12
75 26 115 33 68 11 74 10 120 -12 56 -28 81 -67 90 -136 l5 -49 -138 -22
c-200 -32 -273 -72 -293 -165 -12 -49 4 -123 34 -163 73 -96 252 -79 356 33
l39 43 0 -70 0 -70 31 0 31 0 -4 248 c-4 231 -5 250 -27 298 -12 29 -34 63
-49 77 -49 46 -141 58 -240 31z m258 -356 c0 -78 -17 -125 -60 -168 -73 -73
-155 -96 -236 -65 -57 22 -84 62 -84 127 0 59 31 99 92 118 54 16 189 38 246
39 l42 1 0 -52z"/>
<path d="M12017 1059 c-21 -6 -62 -33 -91 -60 -92 -84 -133 -215 -106 -344 33
-160 136 -255 274 -255 89 0 204 42 230 82 18 29 -1 32 -51 8 -196 -92 -381
-11 -400 175 -5 43 -3 55 8 56 8 0 118 2 244 4 127 2 233 4 236 5 11 0 -12
132 -32 184 -20 53 -59 102 -103 131 -31 20 -156 28 -209 14z m183 -64 c17 -9
44 -34 60 -56 29 -41 59 -143 46 -157 -6 -5 -309 -7 -428 -2 -27 1 32 139 75
179 61 56 176 73 247 36z"/>
<path d="M12640 1059 c-74 -23 -130 -91 -130 -159 0 -41 33 -104 67 -128 16
-11 69 -40 119 -65 104 -52 134 -83 134 -137 0 -100 -118 -147 -250 -100 -30
11 -59 21 -64 23 -4 1 -10 -6 -11 -16 -10 -56 134 -95 240 -66 84 23 135 84
135 162 0 72 -29 104 -152 167 -126 65 -145 81 -158 132 -27 99 83 171 210
138 91 -24 102 -24 98 -5 -8 45 -157 78 -238 54z"/>
</g>
</svg>
