<svg xmlns="http://www.w3.org/2000/svg" version="1.0" width="2368.000000pt" height="732.000000pt" viewBox="0 0 2368.000000 732.000000" preserveAspectRatio="xMidYMid meet">

<g transform="translate(0.000000,732.000000) scale(0.100000,-0.100000)" fill="#ffffff" stroke="none">
<path d="M5405 7199 c-85 -8 -205 -14 -650 -30 -300 -10 -451 -21 -463 -33 -8 -8 -15 -1433 -7 -1454 6 -15 1243 602 1252 625 3 8 2 213 -3 456 -9 432 -9 442 -29 443 -11 1 -56 -2 -100 -7z"/>
<path d="M5466 6088 c-36 -62 -124 -213 -194 -335 -156 -274 -426 -741 -582 -1008 -197 -337 -260 -447 -260 -455 0 -4 -6 -12 -13 -18 -10 -9 -26 -1 -67 33 -29 24 -57 42 -61 39 -4 -2 -6 -747 -5 -1654 1 -1453 3 -1652 16 -1661 8 -5 47 -26 85 -46 39 -20 131 -70 205 -113 74 -42 214 -121 310 -175 266 -149 551 -311 590 -334 46 -28 60 -34 63 -30 1 2 -1 270 -5 594 -4 325 -8 1644 -8 2933 0 1288 -2 2342 -4 2342 -1 0 -33 -51 -70 -112z"/>
<path d="M3485 6099 c-115 -4 -291 -13 -390 -18 -99 -6 -230 -11 -291 -11 l-111 0 -7 -37 c-3 -21 -6 -453 -6 -961 0 -782 2 -923 14 -920 7 2 85 62 171 133 87 72 213 175 280 230 67 55 210 174 319 263 l197 164 -42 46 c-23 26 -82 87 -131 136 -49 49 -88 92 -86 96 2 5 98 56 215 114 135 67 213 111 217 123 2 10 4 61 2 113 -1 52 -3 195 -4 318 l-2 222 -67 -2 c-38 0 -162 -5 -278 -9z"/>
<path d="M2089 5086 c-4 -4 -243 -12 -711 -22 l-288 -7 0 -1114 c0 -612 3 -1113 6 -1113 3 0 85 66 183 148 97 81 221 183 275 227 197 160 592 487 630 522 l38 35 -7 657 c-4 361 -9 659 -12 664 -4 7 -106 10 -114 3z"/>
<path d="M10170 4792 c-12 -10 -38 -65 -59 -127 -21 -60 -69 -186 -106 -280 -37 -93 -102 -264 -146 -380 -44 -115 -122 -316 -174 -445 -51 -129 -123 -311 -160 -405 -79 -201 -142 -334 -183 -391 -37 -51 -83 -68 -232 -86 -102 -13 -105 -14 -108 -39 l-3 -26 300 -8 c166 -4 357 -4 426 0 l125 7 0 28 c0 17 -7 30 -17 34 -9 4 -78 13 -152 22 -185 20 -181 19 -181 53 0 16 26 107 59 203 32 95 91 268 130 383 39 116 79 216 88 223 13 9 98 12 347 12 182 0 336 -4 343 -8 7 -4 52 -118 101 -252 135 -369 195 -560 185 -586 -2 -7 -40 -17 -91 -23 -157 -20 -227 -32 -234 -39 -3 -4 -8 -16 -10 -27 -3 -18 5 -21 72 -28 92 -10 816 -5 826 6 21 21 -20 44 -137 78 l-123 35 -37 70 c-21 38 -71 164 -112 279 -41 116 -142 390 -225 610 -291 775 -384 1014 -415 1069 -27 48 -66 63 -97 38z m-39 -324 c33 -61 309 -788 309 -813 0 -13 -43 -15 -326 -15 l-326 0 7 27 c32 131 301 823 319 823 3 0 11 -10 17 -22z"/>
<path d="M16502 4801 c-7 -4 -34 -66 -61 -137 -62 -169 -284 -744 -368 -954 -36 -91 -90 -228 -120 -305 -165 -426 -228 -570 -282 -642 -36 -50 -81 -66 -231 -84 -52 -6 -98 -13 -102 -16 -5 -2 -8 -15 -8 -28 l0 -23 188 -7 c258 -11 652 -1 663 16 11 18 -7 46 -33 55 -13 4 -88 14 -168 23 l-145 16 -3 31 c-2 18 18 93 48 180 28 82 87 254 130 383 44 128 85 240 91 247 9 11 75 14 349 14 308 0 338 -1 352 -17 8 -10 46 -101 83 -203 143 -391 212 -617 196 -633 -6 -6 -72 -16 -148 -25 -163 -17 -183 -23 -183 -55 0 -22 5 -25 68 -30 88 -9 623 -9 741 0 130 9 121 25 -43 79 -71 23 -133 48 -138 56 -29 41 -90 190 -201 498 -69 190 -185 500 -257 690 -72 190 -165 435 -207 545 -93 246 -125 313 -159 325 -30 12 -35 12 -52 1z m3 -436 c20 -55 64 -167 97 -249 77 -192 168 -444 168 -463 0 -13 -41 -15 -319 -12 -176 3 -322 7 -326 11 -14 14 154 466 295 792 27 63 34 56 85 -79z"/>
<path d="M8000 4790 c-246 -22 -450 -111 -628 -274 -144 -132 -230 -254 -309 -437 -56 -129 -74 -215 -80 -385 -6 -164 2 -232 43 -379 98 -344 314 -561 684 -687 160 -54 378 -73 647 -57 151 9 245 24 345 56 63 19 81 29 93 52 30 59 114 386 101 398 -14 14 -46 -15 -91 -85 -116 -181 -223 -257 -460 -324 -68 -19 -103 -23 -235 -22 -149 0 -159 1 -254 34 -267 91 -441 302 -506 613 -48 229 -54 405 -20 599 46 263 131 448 273 592 188 190 426 272 676 232 120 -19 183 -43 274 -104 83 -55 142 -121 192 -213 36 -66 57 -85 76 -73 5 3 9 71 9 152 0 112 -3 153 -14 168 -19 27 -129 77 -239 108 -144 42 -361 55 -577 36z"/>
<path d="M19875 4728 c-15 -40 -67 -179 -117 -308 -50 -129 -124 -323 -165 -430 -41 -107 -109 -283 -153 -390 -43 -107 -93 -233 -110 -280 -105 -282 -221 -536 -269 -587 -22 -24 -76 -37 -217 -55 -88 -10 -97 -14 -105 -36 -5 -14 -8 -26 -6 -28 8 -9 630 -16 740 -9 l117 7 0 29 c0 24 -5 30 -37 38 -21 5 -94 15 -163 22 -69 6 -132 16 -141 20 -26 13 -18 42 141 499 34 96 73 209 86 250 14 41 30 80 36 87 8 10 86 13 347 13 185 0 341 -4 347 -8 26 -17 270 -714 281 -801 l5 -48 -33 -6 c-19 -4 -83 -11 -144 -18 -140 -14 -154 -20 -152 -56 l2 -28 360 -3 c198 -2 397 -1 443 3 78 6 83 8 80 28 -3 22 -14 27 -143 62 -27 8 -61 16 -75 19 -51 10 -81 78 -284 636 -63 173 -162 441 -221 595 -58 154 -135 357 -171 450 -99 260 -113 297 -142 350 -25 46 -30 50 -68 53 l-42 3 -27 -73z m34 -348 c18 -47 68 -176 112 -287 83 -211 159 -422 159 -442 0 -12 -546 -15 -612 -3 l-37 7 63 185 c60 175 136 374 206 538 17 40 35 84 41 99 9 25 10 26 23 7 7 -10 28 -57 45 -104z"/>
<path d="M17779 4766 c-9 -9 1 -54 15 -65 6 -5 67 -15 136 -22 136 -13 177 -27 184 -62 7 -31 26 -1407 26 -1820 0 -186 -5 -381 -11 -435 -31 -278 -105 -436 -234 -497 -73 -34 -104 -32 -157 9 -148 118 -203 141 -264 109 -103 -53 -91 -194 18 -238 103 -41 294 -24 417 36 75 37 196 151 258 244 161 240 228 531 240 1043 4 153 1 330 -6 450 -13 220 -19 1075 -8 1108 8 24 77 49 165 60 29 4 60 13 68 21 38 38 28 40 -368 46 -211 4 -403 9 -428 13 -25 3 -48 3 -51 0z"/>
<path d="M11640 4750 c-91 -4 -173 -8 -183 -9 -14 -1 -17 -8 -14 -33 4 -36 2 -36 158 -63 120 -20 154 -40 170 -97 24 -84 17 -1720 -7 -1800 -7 -22 -17 -25 -164 -48 -70 -11 -135 -23 -144 -26 -18 -7 -33 -51 -21 -62 4 -4 218 -7 475 -7 487 0 512 2 480 40 -7 8 -70 33 -140 55 -105 33 -133 46 -154 71 l-26 31 0 418 0 418 59 7 c75 9 186 -2 223 -21 41 -21 83 -83 214 -319 65 -115 152 -268 194 -340 42 -71 99 -170 125 -220 27 -49 57 -102 67 -117 l19 -28 203 0 c267 0 386 8 394 28 11 29 -15 44 -127 78 -138 42 -160 53 -224 113 -76 70 -153 179 -305 434 -195 327 -255 435 -249 452 4 8 37 30 74 49 150 75 262 184 304 296 30 79 37 227 14 305 -61 210 -191 328 -415 376 -83 18 -140 20 -465 23 -203 2 -444 0 -535 -4z m705 -85 c197 -37 328 -146 390 -321 45 -128 27 -297 -44 -416 -45 -74 -130 -138 -215 -163 -67 -20 -252 -45 -332 -45 -61 0 -62 0 -68 31 -3 17 -6 233 -6 480 l0 449 99 0 c55 0 134 -7 176 -15z"/>
<path d="M13625 4753 c-154 -2 -287 -6 -295 -9 -30 -11 30 -43 148 -80 86 -27 123 -44 143 -65 27 -29 79 -128 148 -284 50 -113 229 -513 356 -795 120 -266 192 -435 302 -705 47 -115 91 -220 99 -232 16 -25 55 -31 72 -10 7 7 36 83 66 168 68 194 132 357 286 729 67 162 146 354 175 425 216 535 303 728 335 745 17 9 153 44 211 54 45 8 60 42 26 56 -33 14 -815 6 -830 -9 -21 -21 15 -37 122 -56 141 -23 193 -40 221 -70 23 -25 24 -28 13 -103 -24 -163 -294 -907 -512 -1411 -23 -52 -41 -103 -41 -112 0 -19 -17 -35 -27 -26 -3 3 -74 169 -158 369 -83 200 -222 522 -309 717 -169 382 -209 489 -204 548 4 52 25 60 205 80 81 9 154 21 161 26 6 5 12 17 12 27 0 23 -76 31 -284 28 -89 -2 -287 -4 -441 -5z"/>
<path d="M21160 4736 c0 -8 8 -24 18 -36 14 -18 46 -27 167 -51 82 -15 155 -34 162 -42 10 -9 15 -59 19 -173 7 -183 -13 -1605 -22 -1647 -8 -36 -22 -41 -204 -72 -82 -14 -156 -28 -165 -31 -12 -5 -15 -17 -13 -43 l3 -36 575 3 c385 2 689 -2 920 -11 190 -8 348 -12 353 -8 4 4 16 68 27 142 11 74 31 197 45 275 14 77 25 144 25 147 0 4 -9 7 -19 7 -14 0 -32 -23 -61 -77 -24 -43 -62 -106 -86 -139 -89 -126 -245 -240 -341 -250 -82 -8 -676 -22 -715 -17 l-38 5 0 969 c0 956 0 969 20 989 11 11 26 20 33 20 6 1 81 7 165 14 131 11 156 16 174 33 11 12 17 26 14 32 -5 8 -161 11 -532 11 -440 0 -524 -2 -524 -14z"/>
<path d="M3763 4227 c-34 -29 -155 -133 -269 -232 -267 -231 -709 -609 -765 -656 l-44 -36 -3 -1201 -2 -1200 133 -80 c74 -44 156 -91 183 -105 28 -14 125 -68 218 -121 92 -53 169 -96 171 -96 2 0 39 -21 82 -46 83 -50 343 -194 344 -191 1 6 18 4012 16 4013 -1 2 -30 -21 -64 -49z"/>
<path d="M2128 2819 c-86 -73 -190 -162 -339 -290 -47 -41 -224 -193 -393 -338 l-306 -264 0 -537 0 -538 62 -39 c62 -38 112 -66 273 -153 44 -24 96 -53 115 -65 19 -12 60 -36 90 -52 30 -17 98 -54 150 -83 52 -29 100 -56 105 -60 6 -4 66 -38 135 -75 69 -37 144 -80 167 -96 l43 -28 -3 1344 c-1 740 -5 1345 -9 1345 -4 0 -44 -32 -90 -71z"/>
<path d="M20380 1125 l0 -595 39 0 39 0 1 589 2 588 -23 7 c-13 3 -31 6 -40 6 -17 0 -18 -35 -18 -595z"/>
<path d="M15525 1374 c-4 -168 -5 -427 -3 -575 l3 -269 28 0 27 0 0 575 0 575 -24 0 -23 0 -8 -306z"/>
<path d="M9210 1661 c-53 -17 -112 -53 -150 -91 -74 -74 -89 -203 -36 -294 35 -60 83 -100 226 -189 185 -116 214 -139 240 -192 31 -63 24 -149 -15 -206 -35 -49 -110 -87 -190 -95 -74 -7 -190 16 -259 51 -27 14 -51 23 -53 21 -14 -13 12 -69 38 -85 50 -30 184 -54 265 -48 239 21 368 205 274 393 -37 74 -84 114 -242 204 -67 38 -142 86 -164 105 -125 104 -107 278 36 343 72 33 181 41 269 18 75 -19 101 -20 101 -3 -1 45 -68 69 -205 73 -60 2 -121 0 -135 -5z"/>
<path d="M12040 1655 c-19 -23 -3 -74 27 -81 39 -10 73 11 73 44 0 15 -5 33 -12 40 -17 17 -73 15 -88 -3z"/>
<path d="M13120 1625 c0 -40 3 -45 26 -51 43 -11 74 10 74 50 0 38 -12 46 -66 46 -34 0 -34 0 -34 -45z"/>
<path d="M16816 1518 c-4 -40 -7 -93 -9 -118 l-2 -45 -74 -5 c-41 -3 -76 -9 -78 -15 -8 -26 19 -40 84 -45 l68 -5 6 -315 c6 -348 12 -379 69 -413 70 -42 190 -28 219 25 9 15 13 30 9 33 -3 3 -29 -2 -58 -11 -101 -33 -154 3 -170 117 -11 71 -14 528 -4 553 5 13 24 16 104 16 77 0 102 3 115 16 31 31 12 39 -106 44 l-114 5 -3 118 c-3 116 -3 117 -26 117 -23 0 -25 -4 -30 -72z"/>
<path d="M10660 946 c0 -305 3 -415 12 -418 6 -2 23 -2 37 0 l26 4 -3 189 c-3 230 7 340 39 406 27 55 91 128 130 149 36 18 93 18 109 -1 7 -8 19 -15 27 -15 11 0 12 9 7 38 -4 20 -9 40 -11 45 -8 14 -108 6 -148 -12 -47 -22 -119 -91 -136 -132 -6 -16 -14 -29 -18 -29 -3 0 -5 39 -3 86 4 92 -1 104 -45 104 l-23 0 0 -414z"/>
<path d="M11200 1353 c0 -6 258 -702 299 -805 6 -17 18 -28 30 -28 26 0 52 39 86 130 27 72 245 631 265 678 14 33 13 34 -22 30 -25 -2 -36 -10 -47 -32 -22 -48 -200 -522 -236 -629 -18 -55 -35 -95 -39 -89 -3 5 -30 81 -61 168 -30 88 -90 254 -134 369 -78 208 -79 210 -110 213 -17 2 -31 0 -31 -5z"/>
<path d="M12055 1347 c-3 -6 -4 -194 -3 -417 3 -396 3 -405 23 -408 11 -1 26 2 33 6 21 14 25 148 17 507 l-7 325 -29 0 c-17 0 -32 -6 -34 -13z"/>
<path d="M13138 1355 c-4 -4 -7 -191 -8 -416 l-1 -408 26 -7 c59 -15 57 -33 52 418 l-4 413 -29 3 c-16 2 -33 0 -36 -3z"/>
<path d="M15885 1166 c-10 -263 3 -633 21 -640 40 -16 42 -5 46 272 4 299 6 312 83 400 57 65 105 86 197 87 70 0 79 -2 115 -31 65 -52 83 -97 93 -231 5 -65 10 -205 10 -310 0 -177 1 -193 18 -193 44 1 44 1 40 316 -4 278 -6 303 -26 353 -25 62 -81 126 -131 147 -46 19 -175 18 -237 -3 -58 -20 -142 -100 -152 -147 -5 -22 -8 -2 -12 69 -5 99 -5 100 -31 103 l-27 3 -7 -195z"/>
<path d="M18350 1349 c-135 -20 -235 -111 -281 -259 -29 -91 -29 -253 -1 -332 40 -114 118 -193 217 -219 64 -18 182 -7 245 23 50 23 140 100 140 120 0 4 5 8 12 8 8 0 9 -30 4 -112 -13 -216 -88 -307 -279 -338 -83 -13 -165 -1 -250 37 -31 14 -59 24 -61 22 -2 -2 -2 -17 1 -32 7 -37 48 -62 135 -82 174 -39 365 10 445 114 65 84 67 97 71 604 l3 457 -30 0 c-30 0 -31 -2 -33 -47 -1 -27 -1 -61 -1 -78 1 -29 1 -29 -13 -10 -32 44 -75 83 -109 99 -44 21 -154 34 -215 25z m193 -89 c73 -34 125 -109 138 -197 12 -80 3 -255 -16 -300 -22 -51 -91 -119 -148 -144 -108 -47 -248 -21 -318 59 -18 20 -43 61 -57 91 -23 49 -26 70 -27 161 0 94 3 111 27 163 38 81 64 114 112 144 91 58 197 66 289 23z"/>
<path d="M19030 946 c0 -253 4 -417 10 -421 5 -3 21 -3 35 1 l25 6 0 224 c0 127 5 246 11 276 12 55 55 147 86 185 53 63 144 92 189 58 29 -22 34 -18 34 20 0 42 -20 55 -85 55 -81 0 -172 -66 -216 -157 -12 -24 -22 -43 -22 -43 -1 0 -1 47 1 105 l3 105 -35 0 -36 0 0 -414z"/>
<path d="M9972 1320 c-105 -53 -171 -149 -198 -287 -18 -95 -6 -215 30 -296 31 -70 100 -145 162 -176 92 -46 244 -38 361 20 46 22 65 37 69 55 4 14 4 27 1 31 -3 3 -33 -8 -66 -25 -154 -77 -322 -62 -418 37 -38 40 -74 125 -80 192 l-6 59 307 0 308 0 -7 78 c-13 158 -71 268 -166 316 -46 22 -66 26 -144 26 -82 0 -98 -3 -153 -30z m265 -54 c71 -36 122 -120 138 -229 l7 -47 -277 0 -277 0 7 33 c12 63 73 173 112 203 82 62 213 80 290 40z"/>
<path d="M12618 1331 c-102 -33 -175 -96 -223 -192 -84 -165 -61 -377 53 -501 100 -108 274 -137 425 -70 43 19 79 63 65 77 -3 3 -30 -4 -59 -16 -118 -46 -228 -44 -314 6 -56 33 -90 71 -122 140 -25 53 -28 71 -28 160 0 87 4 107 26 156 38 80 88 131 160 164 100 45 164 44 315 -3 29 -9 30 -9 26 20 -4 25 -13 34 -51 51 -65 29 -197 33 -273 8z"/>
<path d="M13681 1335 c-103 -33 -198 -128 -234 -236 -54 -158 -14 -360 93 -466 140 -139 395 -136 540 7 72 70 100 138 107 265 12 204 -56 348 -197 414 -47 22 -71 26 -160 28 -69 2 -120 -2 -149 -12z m280 -77 c65 -30 119 -90 144 -163 24 -68 25 -211 2 -287 -47 -153 -199 -242 -359 -209 -112 23 -178 76 -227 181 -22 48 -26 68 -26 160 0 94 3 111 28 165 31 66 64 105 117 138 86 53 224 60 321 15z"/>
<path d="M14495 1325 c-95 -46 -125 -89 -125 -180 0 -103 37 -142 227 -240 141 -72 167 -102 160 -178 -6 -63 -42 -102 -117 -124 -65 -19 -151 -9 -226 27 -25 12 -48 20 -51 17 -11 -11 8 -77 25 -86 33 -18 167 -34 222 -27 126 16 210 97 210 203 0 30 -7 67 -14 82 -24 45 -83 91 -171 131 -163 75 -205 116 -205 201 0 111 139 166 306 122 49 -13 67 -14 76 -5 9 9 7 16 -6 31 -49 54 -223 69 -311 26z"/>
<path d="M17433 1334 c-67 -24 -138 -95 -178 -177 -108 -222 -36 -507 151 -598 94 -45 264 -33 376 28 44 24 71 63 55 79 -3 3 -34 -8 -69 -25 -74 -35 -181 -56 -246 -47 -136 19 -236 130 -249 279 l-6 57 307 0 308 0 -7 78 c-13 148 -63 254 -147 309 -38 25 -50 28 -147 30 -76 2 -118 -2 -148 -13z m245 -68 c17 -9 41 -26 53 -39 31 -32 77 -134 85 -190 l6 -47 -273 2 -274 3 3 30 c1 17 19 63 38 103 30 62 44 79 88 107 29 18 68 38 87 44 46 14 148 7 187 -13z"/>
<path d="M19710 1325 c-94 -31 -98 -34 -106 -73 -8 -38 1 -40 57 -11 48 24 156 49 214 49 59 0 120 -32 149 -78 23 -37 55 -157 44 -168 -3 -3 -75 -16 -160 -29 -171 -27 -232 -44 -290 -82 -52 -35 -79 -82 -85 -152 -16 -173 117 -279 300 -241 70 14 164 75 207 133 l32 42 -4 -90 -3 -90 37 -3 37 -3 -3 298 c-2 245 -6 307 -19 349 -23 71 -68 128 -119 153 -64 30 -187 29 -288 -4z m353 -444 c-3 -100 -24 -152 -85 -206 -115 -104 -286 -107 -355 -6 -33 48 -39 111 -17 158 25 50 70 79 157 98 80 17 264 44 287 41 12 -1 15 -17 13 -85z"/>
<path d="M20894 1326 c-150 -70 -243 -263 -217 -449 26 -176 111 -293 242 -333 90 -27 239 -8 333 43 47 26 79 65 65 79 -4 4 -37 -7 -74 -23 -167 -75 -312 -66 -405 24 -45 44 -88 137 -95 208 l-6 55 305 0 c168 0 307 2 310 5 8 8 -20 176 -37 224 -28 80 -101 161 -163 179 -22 7 -77 12 -123 12 -67 0 -94 -5 -135 -24z m262 -65 c64 -36 114 -124 129 -224 l7 -47 -273 2 -274 3 3 30 c6 52 52 141 97 185 81 79 220 102 311 51z"/>
<path d="M21664 1330 c-95 -42 -148 -140 -124 -229 18 -69 68 -113 209 -185 155 -81 173 -97 179 -171 4 -53 3 -56 -35 -94 -53 -53 -105 -67 -201 -52 -40 6 -90 20 -112 31 -50 26 -50 26 -50 -9 0 -41 36 -66 116 -81 191 -36 344 52 344 198 0 96 -37 137 -189 212 -163 80 -201 118 -201 196 0 115 137 172 304 127 35 -9 71 -13 82 -9 17 7 16 10 -13 36 -18 16 -49 34 -70 39 -61 17 -192 12 -239 -9z"/>
</g>
</svg>